# Blender v2.62 (sub 0) OBJ File: 'leveltest.blend'
# www.blender.org
o Cube.002_Cube
v 0.400000 -0.700000 -0.400000
v 0.400000 -0.700000 0.400000
v -0.400000 -0.700000 0.400000
v -0.400000 -0.700000 -0.400000
v 0.400000 0.700000 -0.400000
v 0.400000 0.700000 0.400000
v -0.400000 0.700000 0.400000
v -0.400000 0.700000 -0.400000
vt 0.041883 0.124188
vt 0.009243 0.124188
vt 0.009243 0.091548
vt 0.041883 0.091548
vt 0.009243 0.058908
vt 0.041883 0.058908
vt 0.041883 0.001788
vt 0.009243 0.001788
vt 0.074523 0.001788
vt 0.074523 0.058908
vt 0.107163 0.001788
vt 0.107163 0.058908
vt 0.099003 0.058908
vt 0.099003 0.091548
vn 0.000000 -1.000000 0.000000
vn 0.000000 1.000000 0.000000
vn 1.000000 0.000000 0.000000
vn -0.000000 -0.000000 1.000000
vn -1.000000 -0.000000 -0.000000
vn 0.000000 0.000000 -1.000000
s off
f 1/1/1 2/2/1 3/3/1
f 1/1/1 3/3/1 4/4/1
f 5/4/2 8/3/2 7/5/2
f 5/4/2 7/5/2 6/6/2
f 1/7/3 5/6/3 6/5/3
f 1/7/3 6/5/3 2/8/3
f 2/9/4 6/10/4 7/6/4
f 2/9/4 7/6/4 3/7/4
f 3/11/5 7/12/5 8/10/5
f 3/11/5 8/10/5 4/9/5
f 5/6/6 1/13/6 4/14/6
f 5/6/6 4/14/6 8/4/6
