# Blender v2.61 (sub 0) OBJ File: 'giggio.blend'
# www.blender.org
o Cube.005_Cube.003
v 3.000000 0.000000 -3.000000
v 2.999999 0.000000 3.000000
v -3.000000 0.000000 3.000000
v -3.000000 0.000000 -3.000000
v 2.999999 0.000000 8.000000
v -3.000001 0.000000 8.000000
v 3.000001 0.000000 -8.000000
v -3.000000 0.000000 -8.000000
v 8.000001 0.000000 -7.999999
v 8.000000 0.000000 -2.999999
v 13.000000 0.000000 -2.999998
v 13.000001 0.000000 -7.999998
v 8.000002 0.000000 -12.999999
v 13.000002 0.000000 -12.999998
v 7.999999 0.000000 3.000001
v 12.999999 0.000000 3.000002
v 18.000000 0.000000 3.000003
v 18.000000 0.000000 -2.999997
v -8.000000 0.000000 2.999999
v -8.000000 0.000000 -3.000000
v 3.000000 0.000000 0.000000
v -0.000001 0.000000 3.000000
v -3.000000 0.000000 -0.000000
v 0.000000 0.000000 -3.000000
v -3.000001 0.000000 5.500000
v -0.000001 0.000000 8.000000
v 2.999999 0.000000 5.500000
v 3.000001 0.000000 -5.500000
v 0.000001 0.000000 -8.000000
v -3.000000 0.000000 -5.500000
v 5.500000 0.000000 -2.999999
v 8.000000 0.000000 -5.499999
v 5.500001 0.000000 -7.999999
v 10.500000 0.000000 -2.999999
v 13.000000 0.000000 -5.499998
v 10.500001 0.000000 -7.999999
v 13.000002 0.000000 -10.499998
v 10.500002 0.000000 -12.999998
v 8.000002 0.000000 -10.499999
v 8.000000 0.000000 0.000001
v 10.499999 0.000000 3.000001
v 13.000000 0.000000 0.000002
v 15.500000 0.000000 3.000002
v 18.000000 0.000000 0.000003
v 15.500000 0.000000 -2.999998
v -5.500000 0.000000 -3.000000
v -8.000000 0.000000 -0.000001
v -5.500000 0.000000 2.999999
v -0.000000 0.000000 0.000000
v -0.000001 0.000000 5.500000
v 0.000000 0.000000 -5.500000
v 5.500000 0.000000 -5.499999
v 10.500000 0.000000 -5.499999
v 10.500002 0.000000 -10.499998
v 10.500000 0.000000 0.000001
v 15.500000 0.000000 0.000002
v -5.500000 0.000000 -0.000000
v 3.000000 0.000000 -1.500000
v 3.000000 0.000000 1.500000
v 1.499999 0.000000 3.000000
v -1.500000 0.000000 3.000000
v -3.000000 0.000000 1.500000
v -3.000000 0.000000 -1.500000
v 1.500000 0.000000 -3.000000
v -1.500000 0.000000 -3.000000
v -3.000001 0.000000 4.250000
v -3.000001 0.000000 6.750000
v 1.499999 0.000000 8.000000
v -1.500001 0.000000 8.000000
v 2.999999 0.000000 4.250000
v 2.999999 0.000000 6.750000
v 3.000000 0.000000 -4.250000
v 3.000001 0.000000 -6.750000
v 1.500001 0.000000 -8.000000
v -1.499999 0.000000 -8.000000
v -3.000000 0.000000 -4.250000
v -3.000000 0.000000 -6.750000
v 4.250000 0.000000 -3.000000
v 6.750000 0.000000 -2.999999
v 8.000000 0.000000 -6.749999
v 8.000000 0.000000 -4.249999
v 4.250001 0.000000 -7.999999
v 6.750001 0.000000 -7.999999
v 9.250000 0.000000 -2.999999
v 11.750000 0.000000 -2.999998
v 13.000000 0.000000 -4.249998
v 13.000000 0.000000 -6.749998
v 9.250001 0.000000 -7.999999
v 11.750001 0.000000 -7.999998
v 13.000002 0.000000 -9.249998
v 13.000002 0.000000 -11.749998
v 9.250002 0.000000 -12.999998
v 11.750002 0.000000 -12.999998
v 8.000002 0.000000 -9.249999
v 8.000002 0.000000 -11.749999
v 8.000000 0.000000 -1.499999
v 7.999999 0.000000 1.500001
v 9.249999 0.000000 3.000001
v 11.749999 0.000000 3.000002
v 13.000000 0.000000 -1.499998
v 13.000000 0.000000 1.500002
v 14.250000 0.000000 3.000002
v 16.750000 0.000000 3.000002
v 18.000000 0.000000 1.500003
v 18.000000 0.000000 -1.499997
v 14.250000 0.000000 -2.999998
v 16.750000 0.000000 -2.999998
v -4.250000 0.000000 -3.000000
v -6.750000 0.000000 -3.000000
v -8.000000 0.000000 1.499999
v -8.000000 0.000000 -1.500001
v -4.250000 0.000000 3.000000
v -6.750000 0.000000 2.999999
v -1.500000 0.000000 -0.000000
v 0.000000 0.000000 -1.500000
v 1.500000 0.000000 0.000000
v -0.000000 0.000000 1.500000
v -1.500001 0.000000 5.500000
v -0.000001 0.000000 4.250000
v 1.499999 0.000000 5.500000
v -0.000001 0.000000 6.750000
v 1.500001 0.000000 -5.500000
v 0.000000 0.000000 -4.250000
v -1.500000 0.000000 -5.500000
v 0.000001 0.000000 -6.750000
v 5.500000 0.000000 -4.249999
v 4.250000 0.000000 -5.499999
v 5.500001 0.000000 -6.749999
v 6.750000 0.000000 -5.499999
v 10.500000 0.000000 -4.249999
v 9.250000 0.000000 -5.499999
v 10.500000 0.000000 -6.749999
v 11.750000 0.000000 -5.499998
v 11.750002 0.000000 -10.499998
v 10.500002 0.000000 -9.249998
v 9.250002 0.000000 -10.499998
v 10.500002 0.000000 -11.749998
v 9.250000 0.000000 0.000001
v 10.500000 0.000000 -1.499999
v 11.750000 0.000000 0.000002
v 10.500000 0.000000 1.500001
v 15.500000 0.000000 1.500002
v 14.250000 0.000000 0.000002
v 15.500000 0.000000 -1.499998
v 16.750000 0.000000 0.000003
v -5.500000 0.000000 -1.500000
v -4.250000 0.000000 -0.000000
v -5.500000 0.000000 1.499999
v -6.750000 0.000000 -0.000001
v -1.500000 0.000000 -1.500000
v 1.500000 0.000000 -1.500000
v -1.500000 0.000000 1.500000
v 1.500000 0.000000 1.500000
v -1.500001 0.000000 4.250000
v 1.499999 0.000000 4.250000
v -1.500001 0.000000 6.750000
v 1.499999 0.000000 6.750000
v 1.500000 0.000000 -4.250000
v -1.500000 0.000000 -4.250000
v 1.500001 0.000000 -6.750000
v -1.500000 0.000000 -6.750000
v 4.250000 0.000000 -4.249999
v 4.250001 0.000000 -6.749999
v 6.750000 0.000000 -4.249999
v 6.750000 0.000000 -6.749999
v 9.250000 0.000000 -4.249999
v 9.250000 0.000000 -6.749999
v 11.750000 0.000000 -4.249998
v 11.750000 0.000000 -6.749998
v 11.750002 0.000000 -9.249998
v 9.250002 0.000000 -9.249998
v 11.750002 0.000000 -11.749998
v 9.250002 0.000000 -11.749998
v 9.250000 0.000000 -1.499999
v 11.750000 0.000000 -1.499998
v 9.250000 0.000000 1.500001
v 11.750000 0.000000 1.500002
v 14.250000 0.000000 1.500002
v 14.250000 0.000000 -1.499998
v 16.750000 0.000000 1.500002
v 16.750000 0.000000 -1.499998
v -4.250000 0.000000 -1.500000
v -4.250000 0.000000 1.500000
v -6.750000 0.000000 -1.500000
v -6.750000 0.000000 1.499999
v -4.000000 0.000000 -5.500000
v -4.000000 0.000000 -6.750000
v -4.000000 0.000000 -8.000000
v -4.000000 0.000000 -4.250000
v -5.354271 0.000000 -5.500000
v -5.354271 0.000000 -4.250000
v -5.354271 0.000000 -8.000000
v -5.354271 0.000000 -6.750000
v -6.661558 0.000000 -5.500000
v -6.661558 0.000000 -6.750000
v -6.661558 0.000000 -8.000000
v -6.661558 0.000000 -4.250000
v -8.000000 0.000000 -4.250000
v -8.000000 0.000000 -5.500000
v -8.000000 0.000000 -6.750000
v -8.000000 0.000000 -8.000000
v 4.256585 0.000000 0.000000
v 4.256585 0.000000 1.500000
v 4.256585 0.000000 3.000000
v 4.256586 0.000000 -1.500000
v 5.506934 0.000000 -1.500000
v 5.506933 0.000000 0.000000
v 5.506933 0.000000 1.500000
v 5.506933 0.000000 3.000000
v 6.817461 0.000000 0.000000
v 6.817461 0.000000 1.500000
v 6.817461 0.000000 3.000000
v 6.817461 0.000000 -1.500000
vt 0.750000 0.000000
vt 0.000000 0.000000
vt 0.000000 -0.750000
vt 0.750000 -0.750000
vt 0.500000 1.000000
vt -0.250000 1.000000
vt -0.250000 0.250000
vt 0.500000 0.250000
vt 0.750000 0.250000
vt 0.000000 0.250000
vt -0.000000 -0.500000
vt 0.750000 -0.500000
vt -0.250000 -0.500000
vt 0.500000 -0.500000
vt 0.250000 1.000000
vt -0.500000 1.000000
vt -0.500000 0.250000
vt 0.250000 0.250000
vt 0.000000 1.000000
vt -0.750000 1.000000
vt -0.750000 0.250000
vt -0.500000 -0.500000
vt 0.250000 -0.500000
vt -0.750000 -0.500000
vt 0.750000 0.500000
vt -0.000000 0.500000
vt -0.000000 -0.250000
vt 0.750000 -0.250000
vt 0.500000 0.500000
vt -0.250000 0.500000
vt -0.250000 -0.250000
vt 0.500000 -0.250000
vt 0.750000 0.750000
vt -0.000000 0.750000
vt 0.500000 0.750000
vt -0.250000 0.750000
vt -0.250000 0.000000
vt 0.500000 0.000000
vt 0.250000 0.500000
vt -0.500000 0.500000
vt -0.500000 -0.250000
vt 0.250000 -0.250000
vt -0.750000 0.500000
vt -0.750000 -0.250000
vt 0.250000 0.750000
vt -0.500000 0.750000
vt -0.500000 0.000000
vt 0.250000 -0.000000
vt 1.000000 0.750000
vt 1.000000 -0.000000
vt -0.000000 -0.625000
vt 0.750000 -0.625000
vt -0.250000 -0.625000
vt 0.500000 -0.625000
vt 0.750000 0.375000
vt -0.000000 0.375000
vt 0.500000 0.375000
vt -0.250000 0.375000
vt -0.500000 0.375000
vt 0.250000 0.375000
vt 1.000000 1.000000
vt 1.000000 0.375000
vt 1.000000 -0.250000
vt -0.000000 0.125000
vt 0.749999 0.125000
vt -0.250001 0.125000
vt 0.499999 0.125000
vt -0.000001 -0.500000
vt 0.749999 -0.500000
vt -0.250001 -0.500000
vt 0.499999 -0.500000
vt -0.500001 0.125000
vt 0.249999 0.125000
vt 0.999999 0.125000
vt -0.500001 -0.500000
vt 0.249999 -0.500000
vt 0.999999 -0.500000
vt 1.000000 1.625000
vt 0.250000 1.625000
vt 1.250000 1.000000
vt 1.250000 1.625000
vt 0.500000 1.625000
vt 0.250000 0.625000
vt 1.000000 0.625000
vt 1.000000 1.250000
vt 0.250000 1.250000
vt 0.500000 0.625000
vt 1.250000 0.625000
vt 1.250000 1.250000
vt 0.500000 1.250000
vt 1.500000 -0.000000
vt 1.500000 0.625000
vt 0.750000 0.625000
vt 0.000000 0.625000
vt 1.500000 1.250000
vt 0.750000 1.250000
vt 0.000000 1.250000
vt 1.000000 0.250000
vt 1.000000 0.875000
vt 0.250000 0.875000
vt 1.250000 0.250000
vt 1.250000 0.875000
vt 0.500000 0.875000
vt 1.000000 1.500000
vt 0.250000 1.500000
vt 1.250000 1.500000
vt 0.500000 1.500000
vt 1.500000 0.250000
vt 1.500000 0.875000
vt 0.750000 0.875000
vt 0.000000 0.875000
vt 1.500000 1.500000
vt 0.750000 1.500000
vt 0.000000 1.500000
vt 0.625000 -0.000000
vt 0.625000 0.625000
vt 0.000000 -0.375000
vt 0.625000 -0.375000
vt 0.625000 0.250000
vt 1.250000 -0.000000
vt 1.250000 -0.375000
vt 0.625000 0.875000
vt 0.000000 -0.125000
vt 0.625000 -0.125000
vt 0.625000 0.500000
vt 1.250000 -0.125000
vt 1.250000 0.500000
vt 0.875000 -0.000000
vt 0.875000 0.625000
vt 0.250000 -0.375000
vt 0.875000 -0.375000
vt 0.875000 0.250000
vt 1.500000 -0.375000
vt 0.875000 0.875000
vt 0.250000 -0.125000
vt 0.875000 -0.125000
vt 0.875000 0.500000
vt 1.500000 -0.125000
vt 1.500000 0.500000
vt 1.125000 -0.000001
vt 1.125000 0.625000
vt 0.500000 -0.375000
vt 1.125000 -0.375000
vt 1.125000 0.250000
vt 0.125000 0.625000
vt 0.125000 -0.000001
vt 0.750000 -0.000001
vt 0.750000 0.624999
vt 0.125000 0.250000
vt 0.125000 -0.375000
vt 0.750000 -0.375001
vt 0.750000 0.249999
vt 1.125000 0.875000
vt 0.500000 -0.125000
vt 1.125000 -0.125000
vt 1.125000 0.500000
vt 0.125000 0.875000
vt 0.750000 0.874999
vt 0.125000 0.500000
vt 0.125000 -0.125000
vt 0.750000 -0.125001
vt 0.750000 0.499999
vt 1.375000 -0.000001
vt 1.375000 0.624999
vt 1.375000 -0.375001
vt 1.375000 0.249999
vt 0.375000 0.624999
vt 0.375000 -0.000001
vt 1.000000 -0.000001
vt 1.000000 0.624999
vt 0.375000 0.249999
vt 0.375000 -0.375001
vt 1.000000 -0.375001
vt 1.000000 0.249999
vt 1.375000 0.874999
vt 1.375000 -0.125001
vt 1.375000 0.499999
vt 0.375000 0.874999
vt 1.000000 0.874999
vt 0.375000 0.499999
vt 0.375000 -0.125001
vt 1.000000 -0.125001
vt 1.000000 0.499999
vt 1.000001 1.124999
vt 0.375001 1.124999
vt 1.375001 1.124999
vt 0.750001 1.124999
vt 0.375001 0.124999
vt 1.000001 0.124999
vt 1.000001 0.749999
vt 0.375001 0.749999
vt 0.750001 0.124999
vt 1.375001 0.124999
vt 1.375001 0.749999
vt 0.750001 0.749999
vt 0.125001 1.124999
vt 1.125001 1.124999
vt 0.500001 1.125000
vt 0.125001 0.124999
vt 0.125001 0.749999
vt 0.500001 0.125000
vt 1.125001 0.124999
vt 1.125001 0.749999
vt 0.500001 0.750000
vt 1.000001 1.374999
vt 0.375001 1.374999
vt 1.375001 1.374999
vt 0.750001 1.374999
vt 0.375001 0.374999
vt 1.000001 0.374999
vt 1.000001 0.999999
vt 0.375001 0.999999
vt 0.750001 0.374999
vt 1.375001 0.374999
vt 1.375001 0.999999
vt 0.750001 0.999999
vt 0.125001 1.374999
vt 1.125001 1.374999
vt 0.500001 1.375000
vt 0.125001 0.374999
vt 0.125001 0.999999
vt 0.500001 0.375000
vt 1.125001 0.374999
vt 1.125001 0.999999
vt 0.500001 1.000000
vt 0.125000 0.999999
vt 0.125000 0.249999
vt 0.750000 0.999999
vt 0.125000 -0.500001
vt 0.750000 -0.500001
vt 0.375000 0.999999
vt -0.250000 0.999999
vt -0.250000 0.249999
vt 0.000000 0.999999
vt -0.625000 0.999999
vt -0.625000 0.249999
vt 0.000000 0.249999
vt -0.250000 -0.500001
vt 0.375000 -0.500001
vt -0.625000 -0.500001
vt 0.000000 -0.500001
vt 0.125000 0.499999
vt 0.125000 -0.250001
vt 0.750000 -0.250001
vt 0.125000 0.749999
vt 0.750000 0.749999
vt -0.250000 0.499999
vt -0.250000 -0.250001
vt 0.375000 -0.250001
vt 0.000000 0.499999
vt -0.625000 0.499999
vt -0.625000 -0.250001
vt 0.000000 -0.250001
vt 0.375000 0.749999
vt -0.250000 0.749999
vt -0.250000 -0.000001
vt 0.000000 0.749999
vt -0.625000 0.749999
vt -0.625000 -0.000001
vt -0.000000 -0.000001
vt 0.625000 -0.000001
vt 0.625000 0.749999
vt 0.625000 -0.250001
vt 0.625000 0.499999
vt 1.250000 -0.000001
vt 1.250000 0.749999
vt 1.250000 -0.250001
vt 1.250000 0.499999
vt 0.625000 -0.500001
vt 0.625000 0.249999
vt 0.625000 0.999999
vt 1.250000 -0.500001
vt 1.250000 0.249999
vt 1.250000 0.999999
vt 0.250000 0.749999
vt 0.250000 -0.000001
vt 0.875000 -0.000001
vt 0.875000 0.749999
vt 0.250000 0.499999
vt 0.250000 -0.250001
vt 0.875000 -0.250001
vt 0.875000 0.499999
vt 1.500000 -0.000001
vt 1.500000 0.749999
vt 1.500000 -0.250001
vt 1.500000 0.499999
vt 0.250000 0.249999
vt 0.250000 -0.500001
vt 0.875000 -0.500001
vt 0.875000 0.249999
vt 0.250000 0.999999
vt 0.875000 0.999999
vt 1.500000 -0.500001
vt 1.500000 0.249999
vt 1.500000 0.999999
vt -0.625000 1.000000
vt -0.625000 0.250000
vt 1.000000 0.500000
vt 0.375000 1.250000
vt 0.375000 0.500000
vt 0.375000 0.250000
vt 0.375000 1.000000
vt -0.250000 1.250000
vt 0.375000 1.500000
vt 0.375000 0.750000
vt 0.375000 0.000000
vt -0.250000 1.500000
vt 0.750000 1.000000
vt 0.125000 1.000000
vt 0.125000 1.250000
vt -0.500000 1.250000
vt 0.125000 1.500000
vt 0.125000 0.750000
vt 0.125000 0.000000
vt -0.500000 1.500000
vt -0.500000 0.875000
vt -0.500000 0.625000
vt -0.177136 1.250000
vt -0.177136 0.625000
vt -0.177135 1.500000
vt -0.177135 0.875000
vt -0.177136 0.250000
vt 0.822864 0.250000
vt 0.822865 0.875000
vt 0.169221 0.875000
vt 0.169221 0.250000
vt 0.822865 1.500000
vt 0.169221 1.500000
vt 0.822864 0.625000
vt 0.822864 1.250000
vt 0.169221 1.250000
vt 0.169221 0.625000
vt -0.625000 0.000000
vt 1.375000 0.000000
vt 1.125000 0.000000
vt 1.169221 0.625000
vt 0.628293 -0.250000
vt 0.628293 0.500000
vt 1.628292 -0.000000
vt 1.628293 0.750000
vt 0.628293 -0.500000
vt 0.628293 0.250000
vt 1.253467 -0.500000
vt 1.253467 0.250000
vt 0.628293 0.750000
vt 0.628292 -0.000000
vt 1.253466 -0.000000
vt 1.253467 0.750000
vt 1.253467 -0.250000
vt 1.253467 0.500000
vt 0.253467 0.500000
vt 0.253467 -0.250000
vt 0.908731 -0.250000
vt 0.908731 0.500000
vt 0.253467 0.750000
vt 0.253466 -0.000000
vt 0.908730 -0.000000
vt 0.908731 0.750000
vt 0.253467 0.250000
vt 0.253467 -0.500000
vt 0.908731 -0.500000
vt 0.908731 0.250000
vt 0.500000 1.750000
vt -0.091269 1.750000
vt -0.091270 1.000000
vt -0.091269 0.500000
vt -0.091269 -0.250000
vt -0.091269 1.250000
vt 0.625000 1.000000
vt -0.375000 1.000000
vt -0.371707 0.250000
vt 0.875000 1.000000
vt -0.125000 1.000000
vt -0.091269 0.250000
vn 0.000000 1.000000 0.000000
s off
f 65/1/1 4/2/1 63/3/1
f 65/1/1 63/3/1 150/4/1
f 24/5/1 65/6/1 150/7/1
f 24/5/1 150/7/1 115/8/1
f 150/9/1 63/10/1 23/11/1
f 150/9/1 23/11/1 114/12/1
f 115/8/1 150/7/1 114/13/1
f 115/8/1 114/13/1 49/14/1
f 64/15/1 24/16/1 115/17/1
f 64/15/1 115/17/1 151/18/1
f 1/19/1 64/20/1 151/21/1
f 1/19/1 151/21/1 58/10/1
f 151/18/1 115/17/1 49/22/1
f 151/18/1 49/22/1 116/23/1
f 58/10/1 151/21/1 116/24/1
f 58/10/1 116/24/1 21/11/1
f 114/25/1 23/26/1 62/27/1
f 114/25/1 62/27/1 152/28/1
f 49/29/1 114/30/1 152/31/1
f 49/29/1 152/31/1 117/32/1
f 152/33/1 62/34/1 3/2/1
f 152/33/1 3/2/1 61/1/1
f 117/35/1 152/36/1 61/37/1
f 117/35/1 61/37/1 22/38/1
f 116/39/1 49/40/1 117/41/1
f 116/39/1 117/41/1 153/42/1
f 21/26/1 116/43/1 153/44/1
f 21/26/1 153/44/1 59/27/1
f 153/45/1 117/46/1 22/47/1
f 153/45/1 22/47/1 60/48/1
f 59/49/1 153/45/1 60/48/1
f 59/49/1 60/48/1 2/50/1
f 61/1/1 3/2/1 66/51/1
f 61/1/1 66/51/1 154/52/1
f 22/38/1 61/37/1 154/53/1
f 22/38/1 154/53/1 119/54/1
f 154/55/1 66/56/1 25/27/1
f 154/55/1 25/27/1 118/28/1
f 119/57/1 154/58/1 118/31/1
f 119/57/1 118/31/1 50/32/1
f 60/15/1 22/16/1 119/59/1
f 60/15/1 119/59/1 155/60/1
f 2/61/1 60/15/1 155/60/1
f 2/61/1 155/60/1 70/62/1
f 155/60/1 119/59/1 50/41/1
f 155/60/1 50/41/1 120/42/1
f 70/62/1 155/60/1 120/42/1
f 70/62/1 120/42/1 27/63/1
f 118/33/1 25/34/1 67/64/1
f 118/33/1 67/64/1 156/65/1
f 50/35/1 118/36/1 156/66/1
f 50/35/1 156/66/1 121/67/1
f 156/65/1 67/64/1 6/68/1
f 156/65/1 6/68/1 69/69/1
f 121/67/1 156/66/1 69/70/1
f 121/67/1 69/70/1 26/71/1
f 120/45/1 50/46/1 121/72/1
f 120/45/1 121/72/1 157/73/1
f 27/49/1 120/45/1 157/73/1
f 27/49/1 157/73/1 71/74/1
f 157/73/1 121/72/1 26/75/1
f 157/73/1 26/75/1 68/76/1
f 71/74/1 157/73/1 68/76/1
f 71/74/1 68/76/1 5/77/1
f 64/15/1 1/61/1 72/78/1
f 64/15/1 72/78/1 158/79/1
f 24/5/1 64/80/1 158/81/1
f 24/5/1 158/81/1 123/82/1
f 158/83/1 72/84/1 28/85/1
f 158/83/1 28/85/1 122/86/1
f 123/87/1 158/88/1 122/89/1
f 123/87/1 122/89/1 51/90/1
f 65/1/1 24/91/1 123/92/1
f 65/1/1 123/92/1 159/93/1
f 4/2/1 65/1/1 159/93/1
f 4/2/1 159/93/1 76/94/1
f 159/93/1 123/92/1 51/95/1
f 159/93/1 51/95/1 124/96/1
f 76/94/1 159/93/1 124/96/1
f 76/94/1 124/96/1 30/97/1
f 122/18/1 28/98/1 73/99/1
f 122/18/1 73/99/1 160/100/1
f 51/8/1 122/101/1 160/102/1
f 51/8/1 160/102/1 125/103/1
f 160/100/1 73/99/1 7/104/1
f 160/100/1 7/104/1 74/105/1
f 125/103/1 160/102/1 74/106/1
f 125/103/1 74/106/1 29/107/1
f 124/9/1 51/108/1 125/109/1
f 124/9/1 125/109/1 161/110/1
f 30/10/1 124/9/1 161/110/1
f 30/10/1 161/110/1 77/111/1
f 161/110/1 125/109/1 29/112/1
f 161/110/1 29/112/1 75/113/1
f 77/111/1 161/110/1 75/113/1
f 77/111/1 75/113/1 8/114/1
f 72/94/1 1/2/1 78/115/1
f 72/94/1 78/115/1 162/116/1
f 28/10/1 72/117/1 162/118/1
f 28/10/1 162/118/1 127/119/1
f 162/116/1 78/115/1 31/120/1
f 162/116/1 31/120/1 126/88/1
f 127/119/1 162/118/1 126/121/1
f 127/119/1 126/121/1 52/101/1
f 73/111/1 28/10/1 127/119/1
f 73/111/1 127/119/1 163/122/1
f 7/26/1 73/123/1 163/124/1
f 7/26/1 163/124/1 82/125/1
f 163/122/1 127/119/1 52/101/1
f 163/122/1 52/101/1 128/102/1
f 82/125/1 163/124/1 128/126/1
f 82/125/1 128/126/1 33/127/1
f 126/83/1 31/48/1 79/128/1
f 126/83/1 79/128/1 164/129/1
f 52/18/1 126/130/1 164/131/1
f 52/18/1 164/131/1 129/132/1
f 164/129/1 79/128/1 10/91/1
f 164/129/1 10/91/1 81/92/1
f 129/132/1 164/131/1 81/133/1
f 129/132/1 81/133/1 32/108/1
f 128/100/1 52/18/1 129/132/1
f 128/100/1 129/132/1 165/134/1
f 33/39/1 128/135/1 165/136/1
f 33/39/1 165/136/1 83/137/1
f 165/134/1 129/132/1 32/108/1
f 165/134/1 32/108/1 80/109/1
f 83/137/1 165/136/1 80/138/1
f 83/137/1 80/138/1 9/139/1
f 81/87/1 10/38/1 84/140/1
f 81/87/1 84/140/1 166/141/1
f 32/8/1 81/142/1 166/143/1
f 32/8/1 166/143/1 131/144/1
f 166/145/1 84/146/1 34/147/1
f 166/145/1 34/147/1 130/148/1
f 131/149/1 166/150/1 130/151/1
f 131/149/1 130/151/1 53/152/1
f 80/103/1 32/8/1 131/144/1
f 80/103/1 131/144/1 167/153/1
f 9/29/1 80/154/1 167/155/1
f 9/29/1 167/155/1 88/156/1
f 167/157/1 131/149/1 53/152/1
f 167/157/1 53/152/1 132/158/1
f 88/159/1 167/160/1 132/161/1
f 88/159/1 132/161/1 36/162/1
f 130/148/1 34/147/1 85/163/1
f 130/148/1 85/163/1 168/164/1
f 53/152/1 130/151/1 168/165/1
f 53/152/1 168/165/1 133/166/1
f 168/167/1 85/168/1 11/169/1
f 168/167/1 11/169/1 86/170/1
f 133/171/1 168/172/1 86/173/1
f 133/171/1 86/173/1 35/174/1
f 132/158/1 53/152/1 133/166/1
f 132/158/1 133/166/1 169/175/1
f 36/162/1 132/161/1 169/176/1
f 36/162/1 169/176/1 89/177/1
f 169/178/1 133/171/1 35/174/1
f 169/178/1 35/174/1 87/179/1
f 89/180/1 169/181/1 87/182/1
f 89/180/1 87/182/1 12/183/1
f 89/180/1 12/183/1 90/184/1
f 89/180/1 90/184/1 170/185/1
f 36/162/1 89/177/1 170/186/1
f 36/162/1 170/186/1 135/187/1
f 170/188/1 90/189/1 37/190/1
f 170/188/1 37/190/1 134/191/1
f 135/192/1 170/193/1 134/194/1
f 135/192/1 134/194/1 54/195/1
f 88/159/1 36/162/1 135/187/1
f 88/159/1 135/187/1 171/196/1
f 9/29/1 88/156/1 171/197/1
f 9/29/1 171/197/1 94/198/1
f 171/199/1 135/192/1 54/195/1
f 171/199/1 54/195/1 136/200/1
f 94/201/1 171/202/1 136/203/1
f 94/201/1 136/203/1 39/204/1
f 134/191/1 37/190/1 91/205/1
f 134/191/1 91/205/1 172/206/1
f 54/195/1 134/194/1 172/207/1
f 54/195/1 172/207/1 137/208/1
f 172/209/1 91/210/1 14/211/1
f 172/209/1 14/211/1 93/212/1
f 137/213/1 172/214/1 93/215/1
f 137/213/1 93/215/1 38/216/1
f 136/200/1 54/195/1 137/208/1
f 136/200/1 137/208/1 173/217/1
f 39/204/1 136/203/1 173/218/1
f 39/204/1 173/218/1 95/219/1
f 173/220/1 137/213/1 38/216/1
f 173/220/1 38/216/1 92/221/1
f 95/222/1 173/223/1 92/224/1
f 95/222/1 92/224/1 13/225/1
f 84/226/1 10/16/1 96/17/1
f 84/226/1 96/17/1 174/227/1
f 34/228/1 84/226/1 174/227/1
f 34/228/1 174/227/1 139/152/1
f 174/227/1 96/17/1 40/22/1
f 174/227/1 40/22/1 138/229/1
f 139/152/1 174/227/1 138/229/1
f 139/152/1 138/229/1 55/230/1
f 85/231/1 34/232/1 139/233/1
f 85/231/1 139/233/1 175/171/1
f 11/234/1 85/235/1 175/236/1
f 11/234/1 175/236/1 100/237/1
f 175/171/1 139/233/1 55/238/1
f 175/171/1 55/238/1 140/239/1
f 100/237/1 175/236/1 140/240/1
f 100/237/1 140/240/1 42/241/1
f 138/242/1 40/40/1 97/41/1
f 138/242/1 97/41/1 176/243/1
f 55/162/1 138/242/1 176/243/1
f 55/162/1 176/243/1 141/244/1
f 176/245/1 97/46/1 15/47/1
f 176/245/1 15/47/1 98/146/1
f 141/246/1 176/245/1 98/146/1
f 141/246/1 98/146/1 41/147/1
f 140/180/1 55/247/1 141/248/1
f 140/180/1 141/248/1 177/249/1
f 42/250/1 140/251/1 177/252/1
f 42/250/1 177/252/1 101/253/1
f 177/254/1 141/255/1 41/256/1
f 177/254/1 41/256/1 99/168/1
f 101/257/1 177/258/1 99/259/1
f 101/257/1 99/259/1 16/260/1
f 101/257/1 16/260/1 102/261/1
f 101/257/1 102/261/1 178/262/1
f 42/250/1 101/253/1 178/263/1
f 42/250/1 178/263/1 143/264/1
f 178/262/1 102/261/1 43/265/1
f 178/262/1 43/265/1 142/266/1
f 143/264/1 178/263/1 142/267/1
f 143/264/1 142/267/1 56/268/1
f 100/237/1 42/241/1 143/269/1
f 100/237/1 143/269/1 179/270/1
f 11/234/1 100/237/1 179/270/1
f 11/234/1 179/270/1 106/271/1
f 179/270/1 143/269/1 56/272/1
f 179/270/1 56/272/1 144/273/1
f 106/271/1 179/270/1 144/273/1
f 106/271/1 144/273/1 45/274/1
f 142/275/1 43/276/1 103/277/1
f 142/275/1 103/277/1 180/278/1
f 56/279/1 142/280/1 180/281/1
f 56/279/1 180/281/1 145/282/1
f 180/278/1 103/277/1 17/283/1
f 180/278/1 17/283/1 104/284/1
f 145/282/1 180/281/1 104/285/1
f 145/282/1 104/285/1 44/286/1
f 144/287/1 56/288/1 145/289/1
f 144/287/1 145/289/1 181/290/1
f 45/291/1 144/287/1 181/290/1
f 45/291/1 181/290/1 107/292/1
f 181/290/1 145/289/1 44/293/1
f 181/290/1 44/293/1 105/294/1
f 107/292/1 181/290/1 105/294/1
f 107/292/1 105/294/1 18/295/1
f 63/10/1 4/19/1 108/296/1
f 63/10/1 108/296/1 182/297/1
f 23/298/1 63/85/1 182/299/1
f 23/298/1 182/299/1 147/300/1
f 182/301/1 108/302/1 46/6/1
f 182/301/1 46/6/1 146/7/1
f 147/300/1 182/299/1 146/303/1
f 147/300/1 146/303/1 57/30/1
f 62/49/1 23/104/1 147/304/1
f 62/49/1 147/304/1 183/305/1
f 3/50/1 62/49/1 183/305/1
f 3/50/1 183/305/1 112/306/1
f 183/305/1 147/304/1 57/307/1
f 183/305/1 57/307/1 148/36/1
f 112/306/1 183/305/1 148/36/1
f 112/306/1 148/36/1 48/37/1
f 146/9/1 46/308/1 109/309/1
f 146/9/1 109/309/1 184/149/1
f 57/25/1 146/96/1 184/310/1
f 57/25/1 184/310/1 149/159/1
f 184/149/1 109/309/1 20/16/1
f 184/149/1 20/16/1 111/17/1
f 149/159/1 184/310/1 111/311/1
f 149/159/1 111/311/1 47/40/1
f 148/33/1 57/113/1 149/312/1
f 148/33/1 149/312/1 185/313/1
f 48/1/1 148/33/1 185/313/1
f 48/1/1 185/313/1 113/314/1
f 185/313/1 149/312/1 47/315/1
f 185/313/1 47/315/1 110/46/1
f 113/314/1 185/313/1 110/46/1
f 113/314/1 110/46/1 19/47/1
f 30/10/1 77/111/1 187/316/1
f 30/10/1 187/316/1 186/17/1
f 77/111/1 8/114/1 188/315/1
f 77/111/1 188/315/1 187/316/1
f 76/94/1 30/97/1 186/311/1
f 76/94/1 186/311/1 189/317/1
f 189/87/1 186/90/1 190/318/1
f 189/87/1 190/318/1 191/319/1
f 187/103/1 188/107/1 192/320/1
f 187/103/1 192/320/1 193/321/1
f 186/8/1 187/103/1 193/321/1
f 186/8/1 193/321/1 190/322/1
f 190/323/1 193/324/1 195/325/1
f 190/323/1 195/325/1 194/326/1
f 193/324/1 192/327/1 196/328/1
f 193/324/1 196/328/1 195/325/1
f 191/329/1 190/330/1 194/331/1
f 191/329/1 194/331/1 197/332/1
f 197/332/1 194/331/1 199/311/1
f 197/332/1 199/311/1 198/317/1
f 195/325/1 196/328/1 201/315/1
f 195/325/1 201/315/1 200/316/1
f 194/326/1 195/325/1 200/316/1
f 194/326/1 200/316/1 199/17/1
f 4/2/1 76/94/1 189/317/1
f 4/2/1 189/317/1 108/333/1
f 46/1/1 108/334/1 189/92/1
f 46/1/1 189/92/1 191/329/1
f 46/1/1 191/329/1 197/332/1
f 46/1/1 197/332/1 109/314/1
f 20/38/1 109/335/1 197/336/1
f 20/38/1 197/336/1 198/87/1
f 21/26/1 59/27/1 203/337/1
f 21/26/1 203/337/1 202/338/1
f 59/49/1 2/50/1 204/339/1
f 59/49/1 204/339/1 203/340/1
f 58/10/1 21/11/1 202/341/1
f 58/10/1 202/341/1 205/342/1
f 205/342/1 202/341/1 207/343/1
f 205/342/1 207/343/1 206/344/1
f 203/345/1 204/346/1 209/347/1
f 203/345/1 209/347/1 208/348/1
f 202/338/1 203/337/1 208/349/1
f 202/338/1 208/349/1 207/350/1
f 207/351/1 208/352/1 211/353/1
f 207/351/1 211/353/1 210/354/1
f 208/355/1 209/356/1 212/357/1
f 208/355/1 212/357/1 211/358/1
f 206/359/1 207/360/1 210/361/1
f 206/359/1 210/361/1 213/362/1
f 15/5/1 97/363/1 211/364/1
f 15/5/1 211/364/1 212/365/1
f 40/29/1 210/366/1 211/367/1
f 40/29/1 211/367/1 97/32/1
f 40/29/1 96/90/1 213/368/1
f 40/29/1 213/368/1 210/366/1
f 1/19/1 58/10/1 205/342/1
f 1/19/1 205/342/1 78/369/1
f 31/15/1 78/370/1 205/371/1
f 31/15/1 205/371/1 206/359/1
f 31/15/1 206/359/1 213/362/1
f 31/15/1 213/362/1 79/372/1
f 10/5/1 79/373/1 213/374/1
f 10/5/1 213/374/1 96/8/1
