# Blender v2.62 (sub 0) OBJ File: 'leveltest.blend'
# www.blender.org
mtllib leveltest.mtl
o Cube.001_mura
v -3.000000 0.000000 -1.000000
v -3.000000 0.000000 4.000000
v -4.000000 0.000000 4.000000
v -4.000000 0.000000 -1.000000
v -3.000000 2.000000 -0.999999
v -3.000001 2.000000 4.000000
v -4.000000 2.000000 4.000000
v -4.000000 2.000000 -1.000000
v -3.999999 0.000000 -2.000000
v -4.000000 2.000000 -2.000000
v -3.000000 0.000000 -2.000000
v -2.999999 2.000000 -2.000000
v -3.999999 0.000000 -3.000000
v -2.999999 0.000000 -3.000000
v -2.999999 2.000000 -3.000000
v -3.999999 2.000000 -3.000000
v -3.999998 0.000001 -4.000000
v -3.999999 2.000001 -4.000000
v -2.999999 0.000001 -4.000000
v -2.999998 2.000001 -4.000000
v 1.000001 2.000000 -2.999998
v 1.000002 2.000000 -3.999998
v 1.000001 -0.000000 -3.999998
v 1.000001 -0.000001 -2.999998
v 2.000001 -0.000001 -2.999998
v 2.000001 1.999999 -2.999997
v 2.000001 -0.000001 -3.999998
v 2.000002 2.000000 -3.999997
v 3.000002 1.999999 -3.999997
v 3.000001 1.999999 -2.999997
v 3.000001 -0.000001 -3.999997
v 3.000001 -0.000001 -2.999997
v 4.000001 -0.000001 -2.999997
v 4.000001 1.999999 -2.999996
v 4.000001 -0.000001 -3.999997
v 4.000002 1.999999 -3.999996
v 3.999998 1.999997 4.000004
v 2.999998 1.999997 4.000003
v 3.999998 -0.000003 4.000003
v 2.999998 -0.000003 4.000003
vt 0.048240 0.217095
vt -0.001085 0.217095
vt -0.001085 0.207230
vt 0.048240 0.207230
vt 0.097565 0.177635
vt 0.097565 0.187500
vt 0.048240 0.187500
vt 0.048240 0.177635
vt 0.048240 0.167770
vt -0.001085 0.187500
vt -0.001085 0.167770
vt 0.107431 0.187500
vt 0.107431 0.207230
vt 0.097566 0.207230
vt 0.097566 0.187500
vt 0.107431 0.167770
vt 0.107431 0.157905
vt 0.117296 0.157905
vt 0.117296 0.167770
vt 0.107431 0.226960
vt 0.117296 0.226960
vt 0.117296 0.236825
vt 0.107431 0.236825
vt 0.117296 0.187500
vt 0.117296 0.207230
vt 0.028510 0.226960
vt 0.048240 0.226960
vt 0.048240 0.236825
vt 0.028510 0.236825
vt 0.067970 0.226960
vt 0.067970 0.236825
vt 0.107431 0.128310
vt 0.117296 0.128310
vt 0.117296 0.138175
vt 0.107431 0.138175
vt 0.018645 0.246690
vt 0.018645 0.236825
vt 0.028510 0.246690
vt 0.087700 0.148040
vt 0.107431 0.148040
vt 0.087700 0.157905
vt 0.008780 0.226960
vt 0.008780 0.217095
vt 0.067970 0.128310
vt 0.087700 0.128310
vt 0.087700 0.167770
vt 0.067970 0.167770
vt 0.067970 0.177635
vt 0.107431 0.177635
vt 0.087700 0.187500
vt 0.087700 0.207230
vt 0.008780 0.236825
vt 0.038375 0.236825
vt 0.038375 0.246690
vt 0.058105 0.236825
vt 0.067970 0.246690
vt 0.058105 0.246690
vt 0.087700 0.138175
vt 0.008780 0.246690
vt 0.087700 0.246690
vt 0.087700 0.226960
vt 0.097566 0.226960
vt 0.097566 0.246690
vt 0.117296 0.217095
vt 0.067970 0.148040
vt -0.001085 0.148040
vt -0.001085 0.128310
vt 0.087700 0.236825
vt 0.107431 0.246690
vn 0.000000 -1.000000 0.000000
vn 0.000000 1.000000 0.000000
vn 1.000000 0.000000 0.000000
vn -0.000001 -0.000000 1.000000
vn -1.000000 -0.000000 -0.000000
vn 0.000000 0.000000 -1.000000
vn -0.000000 -0.000000 1.000000
usemtl mura_textest.png
s off
f 1/1/1 2/2/1 3/3/1
f 1/1/1 3/3/1 4/4/1
f 5/5/2 8/6/2 7/7/2
f 5/5/2 7/7/2 6/8/2
f 1/9/3 5/7/3 6/10/3
f 1/9/3 6/10/3 2/11/3
f 2/12/4 6/13/4 7/14/4
f 2/12/4 7/14/4 3/15/4
f 3/3/5 7/10/5 8/7/5
f 3/3/5 8/7/5 4/4/5
f 11/16/1 9/17/1 13/18/1
f 11/16/1 13/18/1 14/19/1
f 10/20/2 12/21/2 15/22/2
f 10/20/2 15/22/2 16/23/2
f 12/13/3 11/12/3 14/24/3
f 12/13/3 14/24/3 15/25/3
f 9/26/5 10/27/5 16/28/5
f 9/26/5 16/28/5 13/29/5
f 13/27/5 16/30/5 18/31/5
f 13/27/5 18/31/5 17/28/5
f 16/32/2 15/33/2 20/34/2
f 16/32/2 20/34/2 18/35/2
f 14/36/1 13/37/1 17/29/1
f 14/36/1 17/29/1 19/38/1
f 20/39/6 19/40/6 17/17/6
f 20/39/6 17/17/6 18/41/6
f 20/42/2 15/43/2 21/1/2
f 20/42/2 21/1/2 22/27/2
f 19/44/6 20/45/6 22/46/6
f 19/44/6 22/46/6 23/47/6
f 14/48/1 19/47/1 23/16/1
f 14/48/1 23/16/1 24/49/1
f 15/4/7 14/7/7 24/50/7
f 15/4/7 24/50/7 21/51/7
f 28/15/2 26/5/2 30/49/2
f 28/15/2 30/49/2 29/12/2
f 27/29/6 28/52/6 29/42/6
f 27/29/6 29/42/6 31/26/6
f 25/29/1 27/53/1 31/54/1
f 25/29/1 31/54/1 32/38/1
f 26/12/7 25/16/7 32/19/7
f 26/12/7 32/19/7 30/24/7
f 32/55/1 31/31/1 35/56/1
f 32/55/1 35/56/1 33/57/1
f 31/35/6 29/58/6 36/45/6
f 31/35/6 36/45/6 35/32/6
f 29/59/2 30/52/2 34/37/2
f 29/59/2 34/37/2 36/36/2
f 34/60/3 33/61/3 35/62/3
f 34/60/3 35/62/3 36/63/3
f 34/64/2 30/21/2 38/27/2
f 34/64/2 38/27/2 37/1/2
f 33/44/3 34/65/3 37/66/3
f 33/44/3 37/66/3 39/67/3
f 32/25/1 33/64/1 39/1/1
f 32/25/1 39/1/1 40/4/1
f 30/65/5 32/47/5 40/11/5
f 30/65/5 40/11/5 38/66/5
f 38/17/7 40/35/7 39/34/7
f 38/17/7 39/34/7 37/18/7
f 25/30/5 26/61/5 28/68/5
f 25/30/5 28/68/5 27/31/5
f 22/69/3 21/63/3 24/62/3
f 22/69/3 24/62/3 23/20/3
f 1/46/6 4/41/6 8/17/6
f 1/46/6 8/17/6 5/16/6
f 9/50/7 11/6/7 12/14/7
f 9/50/7 12/14/7 10/51/7
o Cube_pavimento
v 4.000000 0.000000 -4.000000
v 3.999999 0.000000 4.000000
v -4.000000 0.000000 4.000000
v -4.000000 0.000000 -4.000000
vt 0.120847 0.621335
vt 0.000247 0.621335
vt 0.000247 0.500735
vt 0.120847 0.500735
usemtl pavimento_textest.png
s off
f 41/70/2 44/71/2 43/72/2
f 41/70/2 43/72/2 42/73/2
